<?xml version="1.0" encoding="UTF-8"?>
<svg width="18px" height="18px" viewBox="0 0 18 18" version="1.1" xmlns="http://www.w3.org/2000/svg" xmlns:xlink="http://www.w3.org/1999/xlink">
    <!-- Generator: Sketch 55.2 (78181) - https://sketchapp.com -->
    <title>icon_室温</title>
    <desc>Created with Sketch.</desc>
    <g id="页面1" stroke="none" stroke-width="1" fill="none" fill-rule="evenodd">
        <g id="大屏幕" transform="translate(-1348.000000, -446.000000)" fill="#0D68CE">
            <g id="平均室温变化区域" transform="translate(1338.000000, 434.000000)">
                <g id="icon" transform="translate(9.801378, 12.000000)">
                    <path d="M16.1986223,9 L16.1986223,16 C16.1986223,17.1045695 15.3031918,18 14.1986223,18 L4.1986223,18 C3.0940528,18 2.1986223,17.1045695 2.1986223,16 L2.1986223,9 L1.00003012,9 C0.700096993,9 0.416001812,8.86537322 0.226072821,8.63323779 C-0.123654753,8.20579298 -0.060652483,7.57577028 0.36679233,7.2260427 L8.56538451,0.518103647 C8.93375039,0.216713379 9.46349421,0.216713379 9.83186009,0.518103647 L18.0304523,7.2260427 C18.2625877,7.41597169 18.3972145,7.70006687 18.3972145,8 C18.3972145,8.55228475 17.9494992,9 17.3972145,9 L16.1986223,9 Z M10.7948168,7.65 C9.54678442,7.65 8.54553934,8.09546871 7.82893977,8.98393948 C7.17177858,9.77880321 6.8486223,10.7957946 6.8486223,12.0366972 C6.8486223,13.2802376 7.1731278,14.2975014 7.83384754,15.0807256 C8.5393655,15.9269865 9.52764847,16.35 10.7800176,16.35 C11.7980154,16.35 12.6354724,16.0785186 13.2840912,15.534147 C13.9348677,14.985483 14.3485283,14.1729295 14.5428862,13.1126475 L14.6186117,12.6995413 L12.7090486,12.6995413 L12.6678796,13.0023973 C12.5140269,14.1341988 11.9083927,14.6665138 10.7800176,14.6665138 C10.1226973,14.6665138 9.63237704,14.4401687 9.29809277,13.9980781 C8.94051604,13.5419847 8.76215295,12.8900248 8.76215295,12.0220183 C8.76215295,11.1688259 8.94841863,10.5089969 9.31197741,10.0324837 C9.67177028,9.56486667 10.1598082,9.33348624 10.7948168,9.33348624 C11.3410244,9.33348624 11.7506923,9.4495831 12.0624278,9.6874311 C12.3553856,9.91997357 12.5508621,10.2835138 12.6404152,10.7910878 L12.6914376,11.0802752 L14.558246,11.0802752 L14.5006502,10.6803805 C14.3545056,9.66568134 13.9539012,8.89556132 13.2871932,8.38306123 C12.6421722,7.89092013 11.8122849,7.65 10.7948168,7.65 Z M5.1986223,10.5 C6.02704942,10.5 6.6986223,9.82842712 6.6986223,9 C6.6986223,8.17157288 6.02704942,7.5 5.1986223,7.5 C4.37019517,7.5 3.6986223,8.17157288 3.6986223,9 C3.6986223,9.82842712 4.37019517,10.5 5.1986223,10.5 Z M5.1986223,9.5 C4.92247992,9.5 4.6986223,9.27614237 4.6986223,9 C4.6986223,8.72385763 4.92247992,8.5 5.1986223,8.5 C5.47476467,8.5 5.6986223,8.72385763 5.6986223,9 C5.6986223,9.27614237 5.47476467,9.5 5.1986223,9.5 Z" id="形状结合"></path>
                </g>
            </g>
        </g>
    </g>
</svg>