<?xml version="1.0" encoding="UTF-8"?>
<svg width="18px" height="18px" viewBox="0 0 18 18" version="1.1" xmlns="http://www.w3.org/2000/svg" xmlns:xlink="http://www.w3.org/1999/xlink">
    <!-- Generator: Sketch 55.2 (78181) - https://sketchapp.com -->
    <title>icon_各区月进度</title>
    <desc>Created with Sketch.</desc>
    <g id="页面1" stroke="none" stroke-width="1" fill="none" fill-rule="evenodd">
        <g id="大屏幕" transform="translate(-50.000000, -446.000000)">
            <g id="安装进度备份" transform="translate(40.000000, 434.000000)">
                <rect id="矩形" stroke="#0447DE" fill="#0447DE" opacity="0.1" x="0.5" y="0.5" width="541" height="289"></rect>
                <path d="M10,22.668937 L12.1158814,21.1643033 L15.5197766,26.1923124 C15.9111419,26.7704114 16.6872728,26.9150304 17.2533136,26.515328 C17.2926379,26.4867865 17.2926379,26.4867865 17.3304681,26.456211 L23.9740905,20.9427341 L25.5035129,22.8090951 L25.9778579,19.3153679 C26.0521601,18.7681041 25.6687491,18.2642253 25.1214853,18.189923 C25.094203,18.1862189 25.0667793,18.1836431 25.0392844,18.1822022 L21.5626152,18 L23.0854278,19.8582951 L16.5734808,25.262496 L13.1756714,20.2434764 L13.1733347,20.2400368 C12.7801094,19.6632559 12.0035168,19.5212454 11.4387666,19.9228474 L10,20.945975 L10,15 C10,13.8954305 10.8954305,13 12,13 L26,13 C27.1045695,13 28,13.8954305 28,15 L28,28 C28,29.1045695 27.1045695,30 26,30 L12,30 C10.8954305,30 10,29.1045695 10,28 L10,22.668937 Z" id="形状结合" fill="#0D68CE"></path>
            </g>
        </g>
    </g>
</svg>