<?xml version="1.0" encoding="UTF-8"?>
<svg width="18px" height="18px" viewBox="0 0 18 18" version="1.1" xmlns="http://www.w3.org/2000/svg" xmlns:xlink="http://www.w3.org/1999/xlink">
    <!-- Generator: Sketch 55.2 (78181) - https://sketchapp.com -->
    <title>icon_安装量统计</title>
    <desc>Created with Sketch.</desc>
    <g id="页面1" stroke="none" stroke-width="1" fill="none" fill-rule="evenodd">
        <g id="大屏幕" transform="translate(-50.000000, -757.000000)" fill="#0D68CE">
            <g id="近7天按区县安装量统计" transform="translate(40.000000, 744.000000)">
                <g id="icon" transform="translate(10.000000, 13.000000)">
                    <path d="M1.5,9 C2.32842712,9 3,9.67157288 3,10.5 L3,15.5 C3,16.3284271 2.32842712,17 1.5,17 C0.671572875,17 1.01453063e-16,16.3284271 0,15.5 L0,10.5 C-1.01453063e-16,9.67157288 0.671572875,9 1.5,9 Z M6.5,7 C7.32842712,7 8,7.67157288 8,8.5 L8,15.5 C8,16.3284271 7.32842712,17 6.5,17 C5.67157288,17 5,16.3284271 5,15.5 L5,8.5 C5,7.67157288 5.67157288,7 6.5,7 Z M16.5,5 C17.3284271,5 18,5.67157288 18,6.5 L18,15.5 C18,16.3284271 17.3284271,17 16.5,17 C15.6715729,17 15,16.3284271 15,15.5 L15,6.5 C15,5.67157288 15.6715729,5 16.5,5 Z M11.5,2 C12.3284271,2 13,2.67157288 13,3.5 L13,15.5 C13,16.3284271 12.3284271,17 11.5,17 C10.6715729,17 10,16.3284271 10,15.5 L10,3.5 C10,2.67157288 10.6715729,2 11.5,2 Z" id="形状结合"></path>
                </g>
            </g>
        </g>
    </g>
</svg>