<?xml version="1.0" encoding="UTF-8"?>
<svg width="18px" height="18px" viewBox="0 0 18 18" version="1.1" xmlns="http://www.w3.org/2000/svg" xmlns:xlink="http://www.w3.org/1999/xlink">
    <!-- Generator: Sketch 55.2 (78181) - https://sketchapp.com -->
    <title>icon_厂家安装量</title>
    <desc>Created with Sketch.</desc>
    <g id="页面1" stroke="none" stroke-width="1" fill="none" fill-rule="evenodd">
        <g id="大屏幕" transform="translate(-1348.000000, -756.000000)" fill="#0D68CE">
            <g id="厂家备份" transform="translate(1338.000000, 744.000000)">
                <g id="icon" transform="translate(10.000000, 12.000000)">
                    <path d="M4.69730847,3.45454545 L0,3.45454545 L0,2 C1.77628323e-16,1.44771525 0.44771525,1 1,1 L3.69730847,1 C4.24959322,1 4.69730847,1.44771525 4.69730847,2 L4.69730847,3.45454545 Z M4.69730847,5.09090909 L4.69730847,10.3051877 L7.27400664,7.34754518 C7.99957661,6.51470546 9.26291727,6.42774614 10.095757,7.15331611 C10.231472,7.27155106 10.3506051,7.40756551 10.4499289,7.55767498 L11.3929344,8.98285225 L16.1704129,1.88490305 C16.4787963,1.42673477 17.1002091,1.30531007 17.5583774,1.61369339 C17.834452,1.7995133 18,2.11049492 18,2.44328045 L18,15.5 C18,16.6045695 17.1045695,17.5 16,17.5 L2,17.5 C0.8954305,17.5 1.3527075e-16,16.6045695 0,15.5 L0,5.09090909 L4.69730847,5.09090909 Z" id="形状结合"></path>
                </g>
            </g>
        </g>
    </g>
</svg>