<?xml version="1.0" encoding="UTF-8"?>
<svg width="18px" height="18px" viewBox="0 0 18 18" version="1.1" xmlns="http://www.w3.org/2000/svg" xmlns:xlink="http://www.w3.org/1999/xlink">
    <!-- Generator: Sketch 55.2 (78181) - https://sketchapp.com -->
    <title>icon_各区完成占比</title>
    <desc>Created with Sketch.</desc>
    <g id="页面1" stroke="none" stroke-width="1" fill="none" fill-rule="evenodd">
        <g id="大屏幕" transform="translate(-50.000000, -136.000000)" fill="#0D68CE">
            <g id="安装进度" transform="translate(40.000000, 124.000000)">
                <g id="icon" transform="translate(10.000000, 12.000000)">
                    <path d="M2,1 L16,1 C17.1045695,1 18,1.8954305 18,3 L18,16 C18,17.1045695 17.1045695,18 16,18 L2,18 C0.8954305,18 1.3527075e-16,17.1045695 0,16 L0,3 C-1.3527075e-16,1.8954305 0.8954305,1 2,1 Z M4.96296296,8 C4.37036741,7.95555533 4.04938296,7.62222533 4,7 C4.04938296,6.37777467 4.37036741,6.04444467 4.96296296,6 C5.60494148,6.04444467 5.95061704,6.37777467 6,7 C5.95061704,7.62222533 5.60494148,7.95555533 4.96296296,8 Z M5.15789474,14.4879747 C5.05263105,14.6246556 5,14.8524537 5,15.1713759 C5.10526368,15.626979 5.47368105,15.9003367 6.10526316,15.9914574 C6.42105421,16.0370177 6.710525,15.9003388 6.97368421,15.5814166 L7.05263158,15.5130765 L13.8421053,4.51031681 C13.9473689,4.32807558 14,4.14583707 14,3.96359583 C13.8947363,3.37131181 13.5,3.05239443 12.8157895,3.00683412 C12.3947347,2.96127381 12.0789484,3.14351232 11.8684211,3.5535551 L5.15789474,14.4879747 Z M4.96202532,10 C6.83545241,9.85365854 7.84810051,8.8536678 8,7 C7.84810051,5.1463322 6.83545241,4.1463422 4.96202532,4 C3.18986456,4.1463422 2.20253266,5.1463322 2,7 C2.20253266,8.8536678 3.18986456,9.85365854 4.96202532,10 Z M12.9620253,16 C14.8354524,15.9012341 15.8481005,14.9382807 16,13.1111111 C15.7974673,11.1851852 14.7848192,10.1481489 12.9620253,10 C11.1898646,10.1975319 10.2025327,11.2345585 10,13.1111111 C10.1518995,14.9382807 11.1392314,15.9012341 12.9620253,16 Z M12.962963,14 C12.3703674,13.956989 12.049383,13.6344116 12,13.0322581 C12.049383,12.3870935 12.3703674,12.043011 12.962963,12 C13.6049415,12.043011 13.950617,12.3870935 14,13.0322581 C13.950617,13.6344116 13.6049415,13.956989 12.962963,14 Z" id="形状结合"></path>
                </g>
            </g>
        </g>
    </g>
</svg>